<?xml version="1.0" encoding="UTF-8"?>
<svg width="44px" height="44px" viewBox="0 0 44 44" version="1.1" xmlns="http://www.w3.org/2000/svg" xmlns:xlink="http://www.w3.org/1999/xlink">
    <!-- Generator: Sketch 52.6 (67491) - http://www.bohemiancoding.com/sketch -->
    <title>Components / Avatar / fallback / 44</title>
    <desc>Created with Sketch.</desc>
    <defs>
        <circle id="path-1" cx="22" cy="22" r="22"></circle>
    </defs>
    <g id="Components-/-Avatar-/-fallback-/-44" stroke="none" stroke-width="1" fill="none" fill-rule="evenodd">
        <g id="Group">
            <mask id="mask-2" fill="white">
                <use xlink:href="#path-1"></use>
            </mask>
            <use id="Oval" fill="#F2F2F5" fill-rule="nonzero" xlink:href="#path-1"></use>
            <g id="Fill-91" mask="url(#mask-2)" fill="#C0C0C9">
                <g transform="translate(6.000000, 8.000000)">
                    <path d="M0.472571552,29.8083709 C0.366270002,29.7302415 0.206288158,29.5870936 0.126967364,29.3888346 C0.00359733206,29.1416925 0.0447773936,28.9093178 0.228646565,28.6919371 C0.38474682,28.4523875 0.679065637,28.1822474 1.18493811,27.8869251 C3.24785833,26.6826166 6.32103797,25.5782132 9.30941481,24.5119552 C10.0394563,24.2522024 10.7676542,23.9906332 11.4774168,23.7308804 L11.4774168,20.374075 C10.5538037,19.8109746 8.92595868,18.361445 8.73238708,15.0409687 C8.01893746,14.6304503 7.57095746,13.7204073 7.57095746,12.552428 C7.57095746,11.4898029 7.94335236,10.6397029 8.54803317,10.187406 C8.11295795,8.65613607 7.34051508,5.87877928 8.51116239,4.35477512 C8.87065251,3.88794668 9.59147629,3.32847912 10.8893278,3.39023853 C11.9714852,1.45571597 14.9948893,0.74548281 17.4689188,0.74548281 C20.2471321,0.74548281 23.7148291,1.64099419 24.3545372,4.15859819 C24.9002248,6.30746221 24.0927547,8.82869911 23.6447747,10.2019377 C24.2402378,10.6578674 24.603415,11.5025181 24.603415,12.552428 C24.603415,13.7204073 24.1535914,14.6304503 23.4419854,15.0409687 C23.2465702,18.361445 21.6205688,19.8109746 20.6951121,20.374075 L20.6951121,23.7290639 C21.4859904,24.0178799 22.2750251,24.2994302 23.047468,24.5755311 C26.1269109,25.6724688 29.0348324,26.7136721 30.979741,27.8440236 C31.4063899,28.0333336 31.6992279,28.2417928 31.8337752,28.469655 C31.9901844,28.7345412 32.1468114,29.3634068 31.8337752,29.6761314 C27.6415674,33.8612393 22.0482698,36.1663183 16.0862645,36.1663183 C10.1888844,36.1663183 4.65179409,33.9114678 0.472571552,29.8083709 Z"></path>
                </g>
            </g>
        </g>
    </g>
</svg>